<?xml version="1.0" standalone="no"?>
<!DOCTYPE svg PUBLIC "-//W3C//DTD SVG 20010904//EN"
 "http://www.w3.org/TR/2001/REC-SVG-20010904/DTD/svg10.dtd">
<svg version="1.0" xmlns="http://www.w3.org/2000/svg"
 width="260.000000pt" height="260.000000pt" viewBox="0 0 260.000000 260.000000"
 preserveAspectRatio="xMidYMid meet">
<metadata>
Created by potrace 1.14, written by Peter Selinger 2001-2017
</metadata>
<g transform="translate(0.000000,260.000000) scale(0.100000,-0.100000)"
fill="#000000" stroke="none">
<path d="M1228 2268 c-302 -23 -503 -202 -525 -465 l-6 -73 201 1 201 1 7 36
c20 110 111 171 223 150 90 -16 134 -69 139 -167 10 -175 -100 -235 -436 -235
l-104 0 6 -211 c3 -115 5 -220 6 -232 l0 -23 185 0 c140 0 187 3 190 13 2 6 6
48 9 92 3 44 5 81 5 83 1 1 21 2 47 2 128 0 284 63 374 150 98 94 141 212 136
372 -6 183 -74 313 -210 408 -113 77 -271 112 -448 98z"/>
<path d="M1075 860 c-97 -22 -173 -89 -190 -169 -41 -189 120 -329 321 -281
215 52 241 340 39 431 -45 20 -124 29 -170 19z"/>
</g>
</svg>
